<?xml version="1.0" encoding="UTF-8" standalone="no"?>
<!-- Created with Inkscape (http://www.inkscape.org/) -->

<svg
   width="210mm"
   height="297mm"
   viewBox="0 0 210 297"
   version="1.1"
   id="svg5"
   inkscape:version="1.1.2 (b8e25be833, 2022-02-05)"
   sodipodi:docname="dibujo.svg"
   xmlns:inkscape="http://www.inkscape.org/namespaces/inkscape"
   xmlns:sodipodi="http://sodipodi.sourceforge.net/DTD/sodipodi-0.dtd"
   xmlns="http://www.w3.org/2000/svg"
   xmlns:svg="http://www.w3.org/2000/svg">
  <sodipodi:namedview
     id="namedview7"
     pagecolor="#ffffff"
     bordercolor="#666666"
     borderopacity="1.0"
     inkscape:pageshadow="2"
     inkscape:pageopacity="0.0"
     inkscape:pagecheckerboard="0"
     inkscape:document-units="mm"
     showgrid="false"
     inkscape:zoom="0.69664703"
     inkscape:cx="396.90114"
     inkscape:cy="554.80033"
     inkscape:window-width="1920"
     inkscape:window-height="986"
     inkscape:window-x="-11"
     inkscape:window-y="-11"
     inkscape:window-maximized="1"
     inkscape:current-layer="layer1" />
  <defs
     id="defs2">
    <inkscape:perspective
       sodipodi:type="inkscape:persp3d"
       inkscape:vp_x="11.931706 : 156.99125 : 1"
       inkscape:vp_y="0 : 1000 : 0"
       inkscape:vp_z="210 : 148.5 : 1"
       inkscape:persp3d-origin="105 : 99 : 1"
       id="perspective191" />
  </defs>
  <g
     inkscape:label="Capa 1"
     inkscape:groupmode="layer"
     id="layer1">
    <g
       sodipodi:type="inkscape:box3d"
       id="g193"
       style="fill-rule:evenodd;stroke:none;stroke-linejoin:round"
       inkscape:perspectiveID="#perspective191"
       inkscape:corner0="20.266512 : 0.57450012 : 0 : 1"
       inkscape:corner7="-5.4591073 : -0.10461293 : 0.25 : 1">
      <path
         sodipodi:type="inkscape:box3dside"
         id="path199"
         style="fill:#8686bf;fill-rule:evenodd;stroke:none;stroke-linejoin:round"
         inkscape:box3dsidetype="3"
         d="M 16.30799,115.72133 -8.9398023,255.8411 V 103.54312 L 16.30799,147.65477 Z"
         points="-8.9398023,255.8411 -8.9398023,103.54312 16.30799,147.65477 16.30799,115.72133 " />
      <path
         sodipodi:type="inkscape:box3dside"
         id="path195"
         style="fill:#353564;fill-rule:evenodd;stroke:none;stroke-linejoin:round"
         inkscape:box3dsidetype="6"
         d="m 16.30799,115.72133 v 31.93344 l 2.250505,0.01 v -31.56242 z"
         points="16.30799,147.65477 18.558495,147.6646 18.558495,116.10218 16.30799,115.72133 " />
      <path
         sodipodi:type="inkscape:box3dside"
         id="path197"
         style="fill:#4d4d9f;fill-rule:evenodd;stroke:none;stroke-linejoin:round"
         inkscape:box3dsidetype="5"
         d="M 16.30799,115.72133 -8.9398023,255.8411 -21.943736,262.21663 18.558495,116.10218 Z"
         points="-8.9398023,255.8411 -21.943736,262.21663 18.558495,116.10218 16.30799,115.72133 " />
      <path
         sodipodi:type="inkscape:box3dside"
         id="path205"
         style="fill:#e9e9ff;fill-rule:evenodd;stroke:none;stroke-linejoin:round"
         inkscape:box3dsidetype="11"
         d="M 18.558495,116.10218 -21.943736,262.21663 V 100.87291 l 40.502231,46.79169 z"
         points="-21.943736,262.21663 -21.943736,100.87291 18.558495,147.6646 18.558495,116.10218 " />
      <path
         sodipodi:type="inkscape:box3dside"
         id="path201"
         style="fill:#d7d7ff;fill-rule:evenodd;stroke:none;stroke-linejoin:round"
         inkscape:box3dsidetype="14"
         d="M -8.9398023,255.8411 V 103.54312 l -13.0039337,-2.67021 v 161.34372 z"
         points="-8.9398023,103.54312 -21.943736,100.87291 -21.943736,262.21663 -8.9398023,255.8411 " />
      <path
         sodipodi:type="inkscape:box3dside"
         id="path203"
         style="fill:#afafde;fill-rule:evenodd;stroke:none;stroke-linejoin:round"
         inkscape:box3dsidetype="13"
         d="M 16.30799,147.65477 -8.9398023,103.54312 -21.943736,100.87291 18.558495,147.6646 Z"
         points="-8.9398023,103.54312 -21.943736,100.87291 18.558495,147.6646 16.30799,147.65477 " />
    </g>
    <g
       sodipodi:type="inkscape:box3d"
       id="g207"
       style="fill-rule:evenodd;stroke:none;stroke-linejoin:round"
       inkscape:perspectiveID="#perspective191"
       inkscape:corner0="68.116163 : 0.49575031 : 0 : 1"
       inkscape:corner7="-5.4591072 : -0.10461293 : 0.25 : 1">
      <path
         sodipodi:type="inkscape:box3dside"
         id="path213"
         style="fill:#8686bf;fill-rule:evenodd;stroke:none;stroke-linejoin:round"
         inkscape:box3dsidetype="3"
         d="M 13.278255,133.67508 -8.9398027,238.18066 V 103.54312 l 22.2180577,38.81826 z"
         points="-8.9398027,238.18066 -8.9398027,103.54312 13.278255,142.36138 13.278255,133.67508 " />
      <path
         sodipodi:type="inkscape:box3dside"
         id="path209"
         style="fill:#353564;fill-rule:evenodd;stroke:none;stroke-linejoin:round"
         inkscape:box3dsidetype="6"
         d="m 13.278255,133.67508 v 8.6863 l 0.708998,0.0221 v -8.65499 z"
         points="13.278255,142.36138 13.987253,142.3835 13.987253,133.72851 13.278255,133.67508 " />
      <path
         sodipodi:type="inkscape:box3dside"
         id="path211"
         style="fill:#4d4d9f;fill-rule:evenodd;stroke:none;stroke-linejoin:round"
         inkscape:box3dsidetype="5"
         d="M 13.278255,133.67508 -8.9398027,238.18066 -21.943737,243.50724 13.987253,133.72851 Z"
         points="-8.9398027,238.18066 -21.943737,243.50724 13.987253,133.72851 13.278255,133.67508 " />
      <path
         sodipodi:type="inkscape:box3dside"
         id="path219"
         style="fill:#e9e9ff;fill-rule:evenodd;stroke:none;stroke-linejoin:round"
         inkscape:box3dsidetype="11"
         d="m 13.987253,133.72851 -35.93099,109.77873 V 100.8729 l 35.93099,41.5106 z"
         points="-21.943737,243.50724 -21.943737,100.8729 13.987253,142.3835 13.987253,133.72851 " />
      <path
         sodipodi:type="inkscape:box3dside"
         id="path215"
         style="fill:#d7d7ff;fill-rule:evenodd;stroke:none;stroke-linejoin:round"
         inkscape:box3dsidetype="14"
         d="M -8.9398027,238.18066 V 103.54312 L -21.943737,100.8729 v 142.63434 z"
         points="-8.9398027,103.54312 -21.943737,100.8729 -21.943737,243.50724 -8.9398027,238.18066 " />
      <path
         sodipodi:type="inkscape:box3dside"
         id="path217"
         style="fill:#afafde;fill-rule:evenodd;stroke:none;stroke-linejoin:round"
         inkscape:box3dsidetype="13"
         d="M 13.278255,142.36138 -8.9398027,103.54312 -21.943737,100.8729 13.987253,142.3835 Z"
         points="-8.9398027,103.54312 -21.943737,100.8729 13.987253,142.3835 13.278255,142.36138 " />
    </g>
    <g
       sodipodi:type="inkscape:box3d"
       id="g221"
       style="fill-rule:evenodd;stroke:none;stroke-linejoin:round"
       inkscape:perspectiveID="#perspective191"
       inkscape:corner0="68.116162 : -0.10461293 : 0 : 1"
       inkscape:corner7="4.3166279 : -0.14636537 : 0.25 : 1">
      <path
         sodipodi:type="inkscape:box3dside"
         id="path233"
         style="fill:#e9e9ff;fill-rule:evenodd;stroke:none;stroke-linejoin:round"
         inkscape:box3dsidetype="11"
         d="m 13.987253,142.3835 23.55877,27.21713 v 7.5005 l -23.55877,-34.11572 z"
         points="37.546023,169.60063 37.546023,177.10113 13.987253,142.98541 13.987253,142.3835 " />
      <path
         sodipodi:type="inkscape:box3dside"
         id="path223"
         style="fill:#353564;fill-rule:evenodd;stroke:none;stroke-linejoin:round"
         inkscape:box3dsidetype="6"
         d="m 13.278255,142.36138 v 0.60409 l 0.708998,0.0199 v -0.60191 z"
         points="13.278255,142.96547 13.987253,142.98541 13.987253,142.3835 13.278255,142.36138 " />
      <path
         sodipodi:type="inkscape:box3dside"
         id="path231"
         style="fill:#afafde;fill-rule:evenodd;stroke:none;stroke-linejoin:round"
         inkscape:box3dsidetype="13"
         d="m 13.278255,142.96547 16.158588,35.48055 8.10918,-1.34489 -23.55877,-34.11572 z"
         points="29.436843,178.44602 37.546023,177.10113 13.987253,142.98541 13.278255,142.96547 " />
      <path
         sodipodi:type="inkscape:box3dside"
         id="path225"
         style="fill:#4d4d9f;fill-rule:evenodd;stroke:none;stroke-linejoin:round"
         inkscape:box3dsidetype="5"
         d="m 13.278255,142.36138 16.158588,28.23145 8.10918,-0.9922 -23.55877,-27.21713 z"
         points="29.436843,170.59283 37.546023,169.60063 13.987253,142.3835 13.278255,142.36138 " />
      <path
         sodipodi:type="inkscape:box3dside"
         id="path229"
         style="fill:#d7d7ff;fill-rule:evenodd;stroke:none;stroke-linejoin:round"
         inkscape:box3dsidetype="14"
         d="m 29.436843,170.59283 v 7.85319 l 8.10918,-1.34489 v -7.5005 z"
         points="29.436843,178.44602 37.546023,177.10113 37.546023,169.60063 29.436843,170.59283 " />
      <path
         sodipodi:type="inkscape:box3dside"
         id="path227"
         style="fill:#8686bf;fill-rule:evenodd;stroke:none;stroke-linejoin:round"
         inkscape:box3dsidetype="3"
         d="m 13.278255,142.36138 16.158588,28.23145 v 7.85319 L 13.278255,142.96547 Z"
         points="29.436843,170.59283 29.436843,178.44602 13.278255,142.96547 13.278255,142.36138 " />
    </g>
    <g
       sodipodi:type="inkscape:box3d"
       id="g235"
       style="fill-rule:evenodd;stroke:none;stroke-linejoin:round"
       inkscape:perspectiveID="#perspective191"
       inkscape:corner0="45.244109 : 0.34700021 : 0 : 1"
       inkscape:corner7="1.3038721 : 0.098500012 : 0.25 : 1">
      <path
         sodipodi:type="inkscape:box3dside"
         id="path247"
         style="fill:#e9e9ff;fill-rule:evenodd;stroke:none;stroke-linejoin:round"
         inkscape:box3dsidetype="11"
         d="M 14.998447,133.83838 67.76276,27.674962 v 97.303298 l -52.764313,14.20489 z"
         points="67.76276,27.674962 67.76276,124.97826 14.998447,139.18315 14.998447,133.83838 " />
      <path
         sodipodi:type="inkscape:box3dside"
         id="path237"
         style="fill:#353564;fill-rule:evenodd;stroke:none;stroke-linejoin:round"
         inkscape:box3dsidetype="6"
         d="m 13.94425,133.75912 v 5.37366 l 1.054197,0.0504 v -5.34477 z"
         points="13.94425,139.13278 14.998447,139.18315 14.998447,133.83838 13.94425,133.75912 " />
      <path
         sodipodi:type="inkscape:box3dside"
         id="path239"
         style="fill:#4d4d9f;fill-rule:evenodd;stroke:none;stroke-linejoin:round"
         inkscape:box3dsidetype="5"
         d="M 13.94425,133.75912 52.328175,14.563878 67.76276,27.674962 14.998447,133.83838 Z"
         points="52.328175,14.563878 67.76276,27.674962 14.998447,133.83838 13.94425,133.75912 " />
      <path
         sodipodi:type="inkscape:box3dside"
         id="path245"
         style="fill:#afafde;fill-rule:evenodd;stroke:none;stroke-linejoin:round"
         inkscape:box3dsidetype="13"
         d="m 13.94425,139.13278 38.383925,-16.70693 15.434585,2.55241 -52.764313,14.20489 z"
         points="52.328175,122.42585 67.76276,124.97826 14.998447,139.18315 13.94425,139.13278 " />
      <path
         sodipodi:type="inkscape:box3dside"
         id="path243"
         style="fill:#d7d7ff;fill-rule:evenodd;stroke:none;stroke-linejoin:round"
         inkscape:box3dsidetype="14"
         d="M 52.328175,14.563878 V 122.42585 l 15.434585,2.55241 V 27.674962 Z"
         points="52.328175,122.42585 67.76276,124.97826 67.76276,27.674962 52.328175,14.563878 " />
      <path
         sodipodi:type="inkscape:box3dside"
         id="path241"
         style="fill:#8686bf;fill-rule:evenodd;stroke:none;stroke-linejoin:round"
         inkscape:box3dsidetype="3"
         d="M 13.94425,133.75912 52.328175,14.563878 V 122.42585 L 13.94425,139.13278 Z"
         points="52.328175,14.563878 52.328175,122.42585 13.94425,139.13278 13.94425,133.75912 " />
    </g>
    <g
       sodipodi:type="inkscape:box3d"
       id="g249"
       style="fill-rule:evenodd;stroke:none;stroke-linejoin:round"
       inkscape:perspectiveID="#perspective191"
       inkscape:corner0="0.058317065 : 0.073374064 : 0 : 1"
       inkscape:corner7="-2.5972798 : -0.020465978 : 0.25 : 1">
      <path
         sodipodi:type="inkscape:box3dside"
         id="path255"
         style="fill:#8686bf;fill-rule:evenodd;stroke:none;stroke-linejoin:round"
         inkscape:box3dsidetype="3"
         d="M 99.871606,125.47359 -46.33504,149.63939 V 90.889479 L 99.871606,214.14271 Z"
         points="-46.33504,149.63939 -46.33504,90.889479 99.871606,214.14271 99.871606,125.47359 " />
      <path
         sodipodi:type="inkscape:box3dside"
         id="path251"
         style="fill:#353564;fill-rule:evenodd;stroke:none;stroke-linejoin:round"
         inkscape:box3dsidetype="6"
         d="m 99.871606,125.47359 v 88.66912 L 120.91551,201.59936 V 129.8736 Z"
         points="99.871606,214.14271 120.91551,201.59936 120.91551,129.8736 99.871606,125.47359 " />
      <path
         sodipodi:type="inkscape:box3dside"
         id="path253"
         style="fill:#4d4d9f;fill-rule:evenodd;stroke:none;stroke-linejoin:round"
         inkscape:box3dsidetype="5"
         d="M 99.871606,125.47359 -46.33504,149.63939 -93.900335,149.85081 120.91551,129.8736 Z"
         points="-46.33504,149.63939 -93.900335,149.85081 120.91551,129.8736 99.871606,125.47359 " />
      <path
         sodipodi:type="inkscape:box3dside"
         id="path261"
         style="fill:#e9e9ff;fill-rule:evenodd;stroke:none;stroke-linejoin:round"
         inkscape:box3dsidetype="11"
         d="M 120.91551,129.8736 -93.900335,149.85081 V 80.199323 L 120.91551,201.59936 Z"
         points="-93.900335,149.85081 -93.900335,80.199323 120.91551,201.59936 120.91551,129.8736 " />
      <path
         sodipodi:type="inkscape:box3dside"
         id="path257"
         style="fill:#d7d7ff;fill-rule:evenodd;stroke:none;stroke-linejoin:round"
         inkscape:box3dsidetype="14"
         d="M -46.33504,149.63939 V 90.889479 L -93.900335,80.199323 v 69.651487 z"
         points="-46.33504,90.889479 -93.900335,80.199323 -93.900335,149.85081 -46.33504,149.63939 " />
      <path
         sodipodi:type="inkscape:box3dside"
         id="path259"
         style="fill:#afafde;fill-rule:evenodd;stroke:none;stroke-linejoin:round"
         inkscape:box3dsidetype="13"
         d="M 99.871606,214.14271 -46.33504,90.889479 -93.900335,80.199323 120.91551,201.59936 Z"
         points="-46.33504,90.889479 -93.900335,80.199323 120.91551,201.59936 99.871606,214.14271 " />
    </g>
    <g
       sodipodi:type="inkscape:box3d"
       id="g263"
       style="fill-rule:evenodd;stroke:none;stroke-linejoin:round"
       inkscape:perspectiveID="#perspective191"
       inkscape:corner0="68.116162 : 0.4957503 : 0 : 1"
       inkscape:corner7="-8.120162 : -0.71174059 : 0.25 : 1">
      <path
         sodipodi:type="inkscape:box3dside"
         id="path269"
         style="fill:#8686bf;fill-rule:evenodd;stroke:none;stroke-linejoin:round"
         inkscape:box3dsidetype="3"
         d="M 13.278255,133.67508 -1.1393862,201.49037 V 31.902813 L 13.278255,151.14554 Z"
         points="-1.1393862,201.49037 -1.1393862,31.902813 13.278255,151.14554 13.278255,133.67508 " />
      <path
         sodipodi:type="inkscape:box3dside"
         id="path265"
         style="fill:#353564;fill-rule:evenodd;stroke:none;stroke-linejoin:round"
         inkscape:box3dsidetype="6"
         d="m 13.278255,133.67508 v 17.47046 l 0.708998,-0.01 v -17.40749 z"
         points="13.278255,151.14554 13.987253,151.136 13.987253,133.72851 13.278255,133.67508 " />
      <path
         sodipodi:type="inkscape:box3dside"
         id="path267"
         style="fill:#4d4d9f;fill-rule:evenodd;stroke:none;stroke-linejoin:round"
         inkscape:box3dsidetype="5"
         d="m 13.278255,133.67508 -14.4176412,67.81529 -7.6832028,1.92828 22.809842,-69.69014 z"
         points="-1.1393862,201.49037 -8.822589,203.41865 13.987253,133.72851 13.278255,133.67508 " />
      <path
         sodipodi:type="inkscape:box3dside"
         id="path275"
         style="fill:#e9e9ff;fill-rule:evenodd;stroke:none;stroke-linejoin:round"
         inkscape:box3dsidetype="11"
         d="M 13.987253,133.72851 -8.822589,203.41865 V 27.659929 L 13.987253,151.136 Z"
         points="-8.822589,203.41865 -8.822589,27.659929 13.987253,151.136 13.987253,133.72851 " />
      <path
         sodipodi:type="inkscape:box3dside"
         id="path271"
         style="fill:#d7d7ff;fill-rule:evenodd;stroke:none;stroke-linejoin:round"
         inkscape:box3dsidetype="14"
         d="M -1.1393862,201.49037 V 31.902813 L -8.822589,27.659929 V 203.41865 Z"
         points="-1.1393862,31.902813 -8.822589,27.659929 -8.822589,203.41865 -1.1393862,201.49037 " />
      <path
         sodipodi:type="inkscape:box3dside"
         id="path273"
         style="fill:#afafde;fill-rule:evenodd;stroke:none;stroke-linejoin:round"
         inkscape:box3dsidetype="13"
         d="M 13.278255,151.14554 -1.1393862,31.902813 -8.822589,27.659929 13.987253,151.136 Z"
         points="-1.1393862,31.902813 -8.822589,27.659929 13.987253,151.136 13.278255,151.14554 " />
    </g>
    <path
       style="fill:#004400;stroke-width:1.43545"
       d="m -174.40683,556.9535 c 0,-6.53371 0.29622,-7.17723 3.30373,-7.17723 3.199,0 121.039995,-10.73025 132.068206,-12.02573 4.426007,-0.51993 5.380405,-0.20833 5.024065,1.6403 -0.356703,1.85052 -13.199887,4.39774 -67.905921,13.46792 -37.10631,6.15218 -68.59643,11.20517 -69.97805,11.22888 -2.06322,0.0354 -2.51203,-1.23922 -2.51203,-7.13414 z"
       id="path578"
       transform="scale(0.26458333)" />
    <path
       style="fill:#004400;stroke-width:1.43545"
       d="m 78.231871,524.49441 c 1.184244,-0.30043 69.003659,-11.5868 150.709809,-25.08082 l 148.55664,-24.5346 36.9677,7.66311 c 20.33223,4.21471 36.48648,7.8188 35.89832,8.00909 -1.53682,0.49723 -371.128806,34.84598 -372.850193,34.65157 -0.789496,-0.0892 -0.46652,-0.40793 0.717724,-0.70835 z"
       id="path617"
       transform="scale(0.26458333)" />
    <path
       style="fill:#004400;stroke-width:1.43545"
       d="M 82.689981,593.11813 C 66.716395,565.16965 53.858962,542.09085 54.117908,541.83191 c 0.721777,-0.72178 85.567962,97.56675 84.876802,98.32399 -0.33343,0.3653 -6.60374,1.36471 -13.93404,2.22091 l -13.32781,1.55672 z"
       id="path656"
       transform="scale(0.26458333)" />
    <path
       style="fill:#004c00;stroke-width:1.43545"
       d="m -33.533636,865.30031 c -0.144513,-68.55491 0.24255,-94.56888 1.417902,-95.29529 0.889173,-0.54953 7.317244,-2.44963 14.284604,-4.22245 l 12.6679241,-3.22328 -0.6497451,4.49678 -0.6497451,4.49678 1.5182022,-4.30634 c 0.9481013,-2.68927 1.452905,-19.66858 1.3443135,-45.21658 l -0.1738901,-40.91025 20.5478475,-62.9402 c 11.301317,-34.61711 20.727079,-62.06237 20.946139,-60.98945 0.219059,1.07292 -2.209866,14.07737 -5.39761,28.8988 -3.187745,14.82142 -5.430431,28.40418 -4.983748,30.1839 0.588504,2.34479 -56.369601,325.37224 -60.157201,341.17053 -0.283919,1.18424 -0.605666,-40.28008 -0.714993,-92.14295 z m 2.186744,22.88262 c -0.398211,-0.98686 -0.72402,-0.17943 -0.72402,1.79431 0,1.97374 0.325809,2.78118 0.72402,1.79431 0.39821,-0.98687 0.39821,-2.60175 0,-3.58862 z m 4.482798,-19.01967 c -0.018,-1.57899 -0.862907,0.35886 -1.877574,4.30634 -1.014667,3.94748 -1.830123,8.46914 -1.812125,10.04813 0.018,1.57899 0.862907,-0.35886 1.877574,-4.30634 1.014668,-3.94748 1.830124,-8.46914 1.812125,-10.04813 z m 6.021263,-26.29531 c 2.539285,-12.09393 4.339742,-22.2661 4.001016,-22.60482 -0.566047,-0.56605 -9.764106,41.47987 -9.729267,44.47417 0.04397,3.77948 1.550821,-1.97336 5.728251,-21.86935 z m 8.333209,-41.17071 c -0.018,-1.57899 -0.862908,0.35886 -1.877575,4.30634 -1.014666,3.94748 -1.830123,8.46914 -1.812124,10.04813 0.018,1.579 0.862907,-0.35886 1.877575,-4.30634 1.014666,-3.94748 1.830123,-8.46914 1.812124,-10.04813 z m 5.1956325,-24.4026 c 0.5570913,-4.43579 0.2624687,-3.94604 -1.2953073,2.15317 -1.1090308,4.34223 -2.3409172,10.47877 -2.7375272,13.63675 -0.557091,4.43579 -0.262468,3.94604 1.295308,-2.15317 1.1090304,-4.34223 2.3409168,-10.47876 2.7375265,-13.63675 z M 12.929309,684.10958 C 20.4675,648.64772 26.433155,619.0276 26.186322,618.2871 25.716623,616.878 -2.2974303,747.52054 -2.0617887,750.02115 c 0.2757379,2.9261 1.53622412,-2.61589 14.9910977,-65.91157 z"
       id="path695"
       transform="scale(0.26458333)" />
    <path
       style="fill:#004c00;stroke-width:1.43545"
       d="m -37.575901,481.93023 c -1.718848,-0.97523 -7.314393,-4.19547 -12.434547,-7.15608 -5.120154,-2.96061 -10.011842,-5.38293 -10.870426,-5.38293 -0.858599,0 -1.561078,-0.57581 -1.561078,-1.27958 0,-0.70377 -2.422317,-2.34017 -5.382927,-3.63645 -2.960609,-1.29627 -9.58161,-4.90649 -14.713333,-8.02271 -5.131724,-3.11623 -10.137846,-5.67852 -11.124716,-5.69396 -0.98687,-0.0155 -1.794309,-0.60392 -1.794309,-1.3077 0,-0.70377 -2.422317,-2.34017 -5.382923,-3.63644 -2.96061,-1.29627 -9.58161,-4.90649 -14.71334,-8.02272 -5.13172,-3.11622 -10.13784,-5.67851 -11.12471,-5.69396 -0.98687,-0.0155 -1.79431,-0.60392 -1.79431,-1.30769 0,-0.70377 -2.42232,-2.34017 -5.38293,-3.63644 -2.96061,-1.29627 -9.58161,-4.90649 -14.71333,-8.02272 -5.13173,-3.11623 -10.08402,-5.67851 -11.0051,-5.69397 -0.92107,-0.0155 -1.89,-0.60176 -2.15317,-1.3029 -0.26316,-0.70114 -2.86577,-2.4775 -5.78356,-3.94748 -18.9853,-9.5647 -180.47389,-102.59039 -176.99671,-101.95915 19.86829,3.6068 166.07795,37.33407 169.55683,39.11293 2.46422,1.26004 7.9548,5.47838 12.2013,9.37409 4.2465,3.89572 9.49726,8.17674 11.66838,9.51338 2.17111,1.33665 3.94748,2.83039 3.94748,3.31943 0,0.48904 5.97504,5.67887 13.27788,11.53295 7.30284,5.85407 13.92384,11.35035 14.71334,12.21394 1.21598,1.3301 15.21704,13.15988 24.547649,20.74079 1.49921,1.21808 7.680877,6.54718 13.737043,11.84244 6.056151,5.29526 11.316922,9.62774 11.690583,9.62774 0.373661,0 4.138954,3.21845 8.367336,7.15211 4.228368,3.93365 8.076615,7.16341 8.551648,7.17723 0.899437,0.0262 7.773894,6.00271 14.565755,12.66322 3.531846,3.46356 3.94603,4.88619 3.94748,13.55883 8.75e-4,5.32909 -0.15988,9.67975 -0.357254,9.66811 -0.197374,-0.0115 -1.765184,-0.81908 -3.484031,-1.79431 z"
       id="path771"
       transform="scale(0.26458333)" />
    <path
       style="fill:#004c00;stroke-width:1.43545"
       d="m 54.213604,512.09578 c 0.797984,-13.91896 0.429426,-12.37771 8.757475,-36.62248 3.596789,-10.47104 6.646268,-19.51436 6.776621,-20.09626 0.130353,-0.5819 0.390333,-1.70396 0.577732,-2.49346 0.187399,-0.78949 3.349009,-10.47876 7.025798,-21.53171 3.676788,-11.05294 6.953125,-21.53024 7.280747,-23.28288 0.327622,-1.75265 3.135894,-10.79597 6.240602,-20.09626 16.546751,-49.56656 20.496231,-61.6943 21.035821,-64.59512 0.32601,-1.75265 3.13297,-10.79597 6.23768,-20.09626 16.54675,-49.56657 20.49623,-61.6943 21.03581,-64.59512 0.32602,-1.75266 3.13297,-10.79597 6.23768,-20.09626 16.54676,-49.56657 20.49623,-61.69431 21.03582,-64.59513 0.32601,-1.75264 3.13297,-10.79596 6.23768,-20.09626 17.41471,-52.16658 20.52246,-61.757638 21.14576,-65.259563 2.97364,-16.706957 3.33665,5.820153 3.08796,191.626153 l -0.27053,202.12956 -70.76205,30.77175 c -38.919134,16.92445 -71.121492,30.77174 -71.5608,30.77174 -0.439308,0 -0.49322,-5.3291 -0.119806,-11.84244 z"
       id="path810"
       transform="scale(0.26458333)" />
    <path
       style="fill:#004c00;stroke-width:1.43545"
       d="m 373.93399,805.5889 c -1.97374,-1.3243 -3.9116,-2.81309 -4.30634,-3.30841 -0.39475,-0.49531 -6.20831,-5.54316 -12.91903,-11.21743 -6.71071,-5.67428 -13.86375,-11.73941 -15.89562,-13.47809 -2.03188,-1.73867 -6.14189,-5.09908 -9.13338,-7.46756 -2.99147,-2.36849 -6.49665,-5.32016 -7.78925,-6.55927 -1.99818,-1.91547 -16.26052,-13.9666 -25.46241,-21.51475 -1.49921,-1.22978 -7.97819,-6.72036 -14.39774,-12.2013 -6.41953,-5.48094 -14.07954,-11.90319 -17.02222,-14.27168 -5.17995,-4.1692 -9.80521,-8.1307 -15.83334,-13.5612 -1.59471,-1.43661 -7.73125,-6.60379 -13.63675,-11.48263 -5.90548,-4.87882 -11.70618,-9.67448 -12.89043,-10.65699 -1.18424,-0.98252 -7.40551,-6.2708 -13.82506,-11.75173 -6.41954,-5.48093 -14.08486,-11.90319 -17.03405,-14.27168 -2.94919,-2.36848 -8.67801,-7.35729 -12.73071,-11.08624 -4.0527,-3.72895 -7.75721,-6.79722 -8.23224,-6.81838 -0.47503,-0.0212 -2.77604,-1.81483 -5.11335,-3.98594 -2.33731,-2.17112 -6.69712,-5.88534 -9.68847,-8.25383 -2.99135,-2.36848 -6.23798,-5.05548 -7.21473,-5.97109 -1.46847,-1.37656 -18.58106,-15.86168 -26.64269,-22.55199 -1.18424,-0.98279 -7.64376,-6.47776 -14.35447,-12.21102 -6.71072,-5.73327 -14.319586,-12.15552 -16.9086,-14.27168 -2.589015,-2.11615 -6.200818,-5.13945 -8.02623,-6.71844 -1.825412,-1.579 -5.723544,-4.80875 -8.662515,-7.17724 -2.93897,-2.36849 -7.189772,-5.92122 -9.446224,-7.89496 -2.256453,-1.97374 -5.164361,-4.46122 -6.462019,-5.52773 -1.297657,-1.06652 -2.077381,-2.22112 -1.732718,-2.56578 0.758837,-0.75884 8.27105,2.46247 10.466535,4.48815 0.865656,0.7987 6.006327,3.71302 11.423712,6.47626 5.417385,2.76323 10.729339,5.83053 11.804341,6.81621 1.075003,0.98569 3.524259,2.18613 5.442792,2.66765 1.918532,0.48152 3.488246,1.40961 3.488246,2.06241 0,0.65281 2.26082,2.00445 5.02406,3.00365 2.76324,0.9992 5.02407,2.23481 5.02407,2.7458 0,0.51099 2.74529,2.14615 6.10065,3.63369 3.35535,1.48754 6.95325,3.52253 7.99533,4.52219 1.04208,0.99967 3.4644,2.21155 5.38293,2.69307 1.91853,0.48153 3.48824,1.29541 3.48824,1.80864 0,0.51323 4.97899,3.51147 11.06441,6.66276 6.08543,3.15129 11.94416,6.53609 13.01941,7.52177 1.07524,0.98569 3.52469,2.18613 5.44322,2.66765 1.91854,0.48152 3.48825,1.2954 3.48825,1.80863 0,0.51323 4.97898,3.51147 11.06441,6.66276 6.08543,3.15129 11.94416,6.53609 13.0194,7.52177 1.07524,0.98569 3.5247,2.18613 5.44323,2.66765 1.91853,0.48152 3.48824,1.29541 3.48824,1.80863 0,0.51323 4.97899,3.51148 11.06441,6.66276 6.08544,3.15129 11.94416,6.53609 13.01941,7.52178 1.07523,0.98568 3.5247,2.18612 5.44323,2.66764 1.91853,0.48152 3.48823,1.29541 3.48823,1.80864 0,0.51323 4.979,3.51147 11.06442,6.66276 6.08543,3.15129 11.94415,6.53608 13.0194,7.52177 1.07524,0.98568 3.5247,2.18612 5.44323,2.66765 1.91854,0.48152 3.48824,1.2954 3.48824,1.80863 0,0.51323 4.97899,3.51147 11.06441,6.66276 6.08544,3.15129 11.94416,6.53609 13.01941,7.52177 1.07523,0.98569 3.52469,2.18613 5.44323,2.66765 1.91853,0.48152 3.48823,1.29541 3.48823,1.80863 0,0.51323 4.979,3.51147 11.06442,6.66276 6.08543,3.1513 11.94415,6.53609 13.0194,7.52178 1.07524,0.98568 3.5247,2.18613 5.44323,2.66765 1.91853,0.48152 3.48824,1.2954 3.48824,1.80863 0,0.51323 4.97899,3.51147 11.06441,6.66276 6.08544,3.15129 11.90282,6.49474 12.92752,7.42989 1.02471,0.93515 3.31269,2.15262 5.08437,2.7055 1.77169,0.55288 3.54424,1.4546 3.93898,2.0038 0.39475,0.54922 20.58073,12.20924 44.85773,25.91116 24.277,13.70191 44.12582,25.27707 44.1085,25.72258 -0.0261,0.67303 -73.41153,44.72295 -75.94728,45.58773 -0.4497,0.15336 -2.43252,-0.80468 -4.40626,-2.12898 z"
       id="path849"
       transform="scale(0.26458333)" />
    <path
       style="fill:#004c00;stroke-width:1.43545"
       d="m 37.329488,484.82228 c -0.592232,-3.35536 -1.286027,-7.64176 -1.541766,-9.52533 -0.255739,-1.88357 -1.196918,-6.72821 -2.09151,-10.76585 -0.894591,-4.03765 -1.942935,-9.89751 -2.329654,-13.02192 -0.38672,-3.1244 -0.988749,-6.14288 -1.337842,-6.70773 -0.349093,-0.56484 -0.998934,-4.12386 -1.444091,-7.90894 -0.445157,-3.78507 -1.075295,-7.31222 -1.400307,-7.8381 -0.325013,-0.52589 -0.947648,-3.45384 -1.383635,-6.50658 -0.435986,-3.05274 -1.207843,-7.48828 -1.715237,-9.85677 -0.507395,-2.36849 -1.127566,-5.27527 -1.378156,-6.45951 -0.25059,-1.18425 -0.827692,-5.03878 -1.282447,-8.56562 -0.454757,-3.52685 -1.092749,-6.84272 -1.417761,-7.36859 -0.325013,-0.52589 -0.947648,-3.45385 -1.383635,-6.50658 -0.435985,-3.05274 -1.207843,-7.48829 -1.715237,-9.85677 -0.507395,-2.36849 -1.127566,-5.27527 -1.378156,-6.45952 -0.25059,-1.18424 -0.827692,-5.03877 -1.282447,-8.56561 -0.454757,-3.52685 -1.108561,-6.8683 -1.452901,-7.42545 -0.344339,-0.55716 -0.99029,-4.10989 -1.435447,-7.89496 -0.445157,-3.78508 -1.075295,-7.31223 -1.4003074,-7.8381 -0.3250125,-0.52589 -0.9461004,-3.45385 -1.3801954,-6.50658 -0.434095,-3.05274 -1.4600651,-8.78019 -2.2799322,-12.72767 -0.8198686,-3.94748 -1.7823861,-9.43806 -2.1389311,-12.2013 -0.356545,-2.76324 -0.9956865,-6.14894 -1.4203161,-7.52378 -0.4246297,-1.37486 -1.0534675,-4.28164 -1.3974165,-6.45951 -0.69638994,-4.40954 -2.26446669,-12.85607 -3.0002683,-16.1611 -0.2636486,-1.18424 -0.7982105,-4.414 -1.1879129,-7.17724 C -3.5669742,261.88116 -30.117895,117.54078 -31.727826,109.98126 l -0.881,-4.13678 13.39927,7.26578 c 14.8594161,8.05756 14.9341455,8.17003 16.405977,24.69267 0.4571325,5.13172 1.0764576,10.29933 1.376278,11.48358 0.2998204,1.18424 0.94943777,5.7059 1.44359333,10.04813 0.49415555,4.34222 1.17296847,10.15578 1.50847267,12.91902 0.3355028,2.76324 0.9615429,8.25382 1.3911981,12.2013 0.8186269,7.52118 3.4408903,29.01872 4.2898367,35.16846 0.272468,1.97374 0.8864819,7.46432 1.3644772,12.2013 0.4779968,4.73697 1.551355,13.78029 2.385244,20.09626 0.833887,6.31597 1.766955,13.7444 2.073483,16.50764 0.674596,6.08124 2.030522,16.62928 2.767854,21.53171 0.296852,1.97374 0.922412,7.14135 1.390134,11.48358 0.467722,4.34222 1.082965,9.67891 1.367203,11.85932 0.28424,2.1804 0.929104,7.99396 1.43303,12.91902 0.503928,4.92506 1.276146,11.3787 1.71604,14.34144 1.119561,7.54032 1.65785,11.98044 2.65338,21.88672 0.476043,4.73698 1.512667,13.45732 2.303611,19.37854 0.790943,5.92122 1.758225,13.67263 2.149515,17.22536 0.39129,3.55273 1.333262,11.30415 2.093272,17.22537 0.76001,5.92122 1.733925,13.67263 2.164257,17.22536 0.430331,3.55274 1.028855,8.39737 1.330053,10.76586 0.301197,2.36849 0.953462,8.18205 1.449475,12.91902 0.496013,4.73698 1.181558,10.22756 1.523434,12.2013 0.341876,1.97374 0.998786,7.11198 1.459798,11.41831 0.461014,4.30633 1.155775,8.34352 1.543911,8.97155 0.388138,0.62802 0.104185,1.14185 -0.630996,1.14185 -0.735186,0 -1.821254,-2.74529 -2.413487,-6.10065 z"
       id="path888"
       transform="scale(0.26458333)" />
    <path
       style="fill:#004c00;stroke-width:1.43545"
       d="m -57.037793,410.12035 c -12.422883,-14.37603 -21.972796,-26.34617 -21.222029,-26.60032 1.33413,-0.45163 43.241432,8.02863 44.146097,8.93329 0.25171,0.25172 0.278856,10.21087 0.06032,22.13146 l -0.397332,21.6738 z"
       id="path927"
       transform="scale(0.26458333)" />
    <path
       style="fill:#004c00;stroke-width:1.43545"
       d="m 69.899026,444.2709 c 0.02925,-2.36849 0.350965,-3.16363 0.714913,-1.76699 0.363948,1.39664 0.340013,3.3345 -0.05319,4.30634 -0.393202,0.97184 -0.690978,-0.17086 -0.661724,-2.53935 z"
       id="path966"
       transform="scale(0.26458333)" />
    <path
       style="fill:#006400;stroke-width:1.43545"
       d="m 52.535354,494.51155 c -0.105249,-3.54995 9.180903,-55.0175 10.090839,-55.92744 0.36237,-0.36237 1.983395,-0.31248 3.602276,0.11087 2.855858,0.74682 2.718835,1.57762 -4.606053,27.92763 -8.422461,30.29834 -8.966155,31.96698 -9.087062,27.88894 z"
       id="path1005"
       transform="scale(0.26458333)" />
    <path
       style="fill:#006400;stroke-width:1.43545"
       d="M -353.83773,435.01844 V 304.47069 l 8.97155,5.07034 c 4.93435,2.78869 44.98332,25.42632 88.99772,50.30584 l 80.02618,45.23551 v 80.24191 80.24189 H -264.84 -353.83773 Z"
       id="path1081"
       transform="scale(0.26458333)" />
    <path
       style="fill:#006400;stroke-width:1.43545"
       d="M -82.538212,735.07303 V 551.26641 l 3.229756,-0.74562 c 1.776366,-0.41009 12.757537,-2.24457 24.402602,-4.07661 l 21.172846,-3.331 -0.202271,106.32488 c -0.111247,58.47868 -0.595712,138.82844 -1.076585,178.55501 l -0.874315,72.23012 -20.455928,8.41731 c -11.25076,4.6295 -21.747468,8.82721 -23.326017,9.32822 -2.859619,0.90761 -2.870088,0.2405 -2.870088,-182.89569 z"
       id="path1120"
       transform="scale(0.26458333)" />
    <path
       style="fill:#006400;stroke-width:1.43545"
       d="m -32.656423,626.31056 c -0.197374,-78.01593 -0.292866,-151.85938 -0.212204,-164.09657 0.09679,-14.68422 -0.147246,-18.67226 -0.717723,-11.7289 l -0.864382,10.52054 -24.04374,-20.26695 -24.04374,-20.26696 0.04565,-18.96252 c 0.03654,-15.17919 0.394538,-18.51628 1.794309,-16.72587 9.039305,11.56192 46.083188,52.95314 46.77357,52.26276 0.49142,-0.49141 1.220044,-72.61369 1.619166,-160.27169 l 0.725677,-159.37822 13.298055,72.28647 13.2980554,72.28646 -0.020169,249.29762 -0.020168,249.29763 -4.6652033,1.46602 c -2.5658611,0.80631 -7.5719831,2.18676 -11.1247151,3.06765 -3.552732,0.8809 -7.589927,1.92969 -8.971545,2.33065 -2.378675,0.69031 -2.531084,-6.80132 -2.870894,-141.11812 z"
       id="path1159"
       transform="scale(0.26458333)" />
    <path
       style="fill:#005800;stroke-width:1.43545"
       d="m 226.80065,467.3197 -27.27349,-4.60273 -0.36383,-202.90443 -0.36383,-202.904425 3.23472,2.874011 c 1.7791,1.580707 14.2159,12.160281 27.63733,23.510167 13.42143,11.349884 24.87717,21.313937 25.4572,22.142337 1.39336,1.98999 1.41523,366.87744 0.022,366.65765 -0.59212,-0.0935 -13.34966,-2.24107 -28.35008,-4.77258 z"
       id="path1198"
       transform="scale(0.26458333)" />
    <path
       style="fill:#008400;stroke-width:1.43545"
       d="M 411.97334,735.58662 C 389.07795,722.60502 299.12521,671.77282 212.07835,622.62617 101.70207,560.30773 53.928224,532.61708 54.197613,531.11545 c 0.317352,-1.76899 11.908331,-3.22395 64.962947,-8.1545 243.42936,-22.62274 330.54187,-30.62236 333.36416,-30.61313 l 3.22976,0.0106 v 133.49659 c 0,73.42312 -0.48447,133.46012 -1.07659,133.41557 -0.59212,-0.0445 -19.80917,-10.70233 -42.70455,-23.68392 z"
       id="path1422"
       transform="scale(0.26458333)" />
    <path
       style="fill:#008400;stroke-width:1.43545"
       d="m 59.571057,523.57057 c 0.394748,-0.42901 31.400407,-14.14529 68.901463,-30.48063 l 68.18374,-29.70061 19.37854,3.15444 c 10.65819,1.73495 23.2239,3.82344 27.92378,4.64111 l 8.54523,1.48666 -92.51889,24.96045 C 66.468444,522.86158 58.276261,524.97775 59.571057,523.57057 Z"
       id="path1572"
       transform="scale(0.26458333)" />
    <path
       style="fill:#008400;stroke-width:1.43545"
       d="m 111.55404,659.22911 0.41084,-13.99561 7.89496,-0.9514 c 4.34223,-0.52327 10.96323,-1.35295 14.71333,-1.84375 l 6.81838,-0.89235 v 13.57214 13.57213 l -3.94748,0.80416 c -5.94841,1.21177 -22.35476,3.70711 -24.45459,3.71945 -1.40716,0.008 -1.74857,-3.31791 -1.43544,-13.98477 z"
       id="path1611"
       transform="scale(0.26458333)" />
    <path
       style="fill:#008400;stroke-width:1.43545"
       d="m 85.409106,616.1547 c -30.18187,-66.24286 -28.994583,-63.50754 -27.565977,-63.50754 0.633159,0 1.968725,2.26083 2.967924,5.02406 0.9992,2.76324 2.291102,5.02407 2.870895,5.02407 0.579793,0 1.871695,2.26083 2.870894,5.02406 0.999199,2.76324 2.291102,5.02407 2.870895,5.02407 0.579792,0 1.871694,2.26083 2.870894,5.02406 0.999199,2.76324 2.350839,5.02407 3.003645,5.02407 0.652805,0 1.580891,1.56971 2.062412,3.48824 0.481522,1.91853 1.689497,4.34085 2.684389,5.38293 0.994893,1.04208 2.621611,3.50956 3.614928,5.4833 0.993318,1.97374 3.363713,6.17242 5.267543,9.33041 1.903831,3.15798 4.479457,7.67964 5.723613,10.04813 1.244157,2.36849 3.797167,6.89014 5.673359,10.04813 10.52186,17.71029 11.06984,19.38248 10.62467,32.42135 l -0.41976,12.29449 z"
       id="path1650"
       transform="scale(0.26458333)" />
    <path
       style="fill:#008400;stroke-width:1.43545"
       d="m -3.4624349,473.81718 c -0.069401,-110.06889 0.1104532,-199.85611 0.3996751,-199.52715 0.2892219,0.32896 11.040846,57.63284 23.8924978,127.34195 l 23.36664,126.74385 -4.541394,14.6477 c -2.497767,8.05624 -13.192609,40.80872 -23.766315,72.7833 l -19.224921,58.13562 z"
       id="path1689"
       transform="scale(0.26458333)" />
    <path
       style="fill:#008400;stroke-width:1.43545"
       d="m 49.038447,546.46392 c -2.931168,-16.41031 -2.873071,-19.88612 0.48448,-28.98522 l 2.64839,-7.17723 0.111252,24.76146 c 0.06119,13.61881 -0.106764,24.76147 -0.373228,24.76147 -0.266464,0 -1.558366,-6.01222 -2.870894,-13.36048 z"
       id="path1728"
       transform="scale(0.26458333)" />
    <path
       style="fill:#008400;stroke-width:1.43545"
       d="m -82.513763,954.93123 0.02445,-34.09187 23.660429,-9.59034 23.660429,-9.59034 v 32.69344 32.69344 l -22.871775,10.98877 c -12.579476,6.04382 -23.237672,10.98877 -23.684878,10.98877 -0.447207,0 -0.802101,-15.34134 -0.788654,-34.09187 z"
       id="path1767"
       transform="scale(0.26458333)" />
    <path
       style="fill:#008400;stroke-width:1.43545"
       d="m -174.40683,477.1444 v -71.19643 l 4.6652,2.72593 c 2.56586,1.49927 34.21747,19.394 70.336914,39.76608 l 65.671708,37.04014 v 24.94349 c 0,24.71394 -0.02973,24.94959 -3.229757,25.60637 -3.600602,0.73901 -130.970385,12.38822 -134.932035,12.34087 -2.35824,-0.0282 -2.51203,-4.38874 -2.51203,-71.22645 z"
       id="path1806"
       transform="scale(0.26458333)" />
  </g>
</svg>
